<?xml version="1.0" standalone="no"?>
<!DOCTYPE svg PUBLIC "-//W3C//DTD SVG 20010904//EN"
 "http://www.w3.org/TR/2001/REC-SVG-20010904/DTD/svg10.dtd">
<svg version="1.0" xmlns="http://www.w3.org/2000/svg"
 width="260.000000pt" height="260.000000pt" viewBox="0 0 260.000000 260.000000"
 preserveAspectRatio="xMidYMid meet">
<metadata>
Created by potrace 1.11, written by Peter Selinger 2001-2013
</metadata>
<g transform="translate(0.000000,260.000000) scale(0.100000,-0.100000)"
fill="#000000" stroke="none">
<path d="M179 2038 c-3 -9 -4 -1405 -1 -1415 3 -9 31 -13 97 -13 l92 0 -1 336
-1 335 40 -4 c123 -16 167 -64 409 -459 l128 -208 118 0 119 0 -141 227 c-232
377 -269 425 -370 483 l-51 28 39 20 c81 42 126 107 203 294 68 162 121 208
242 208 l65 0 -1 83 0 82 -90 1 c-119 2 -181 -20 -250 -90 -27 -29 -60 -72
-72 -96 -12 -25 -53 -110 -91 -191 -98 -203 -125 -231 -241 -245 -39 -5 -51
-3 -52 7 0 8 -1 150 -1 317 l-1 302 -93 0 c-52 0 -94 -1 -95 -2z"/>
<path d="M1723 2003 c-8 -21 -53 -137 -99 -258 -47 -121 -89 -229 -94 -240 -5
-11 -72 -186 -150 -390 -77 -203 -144 -379 -149 -390 -13 -29 -41 -105 -41
-110 0 -3 44 -5 99 -5 l98 0 46 123 c25 67 62 168 82 225 l37 102 293 0 292 0
40 -102 c22 -57 61 -158 87 -225 l48 -123 109 0 c61 0 108 4 105 8 -5 9 -411
997 -432 1052 -7 19 -44 109 -81 200 l-68 165 -103 3 -103 3 -16 -38z m267
-553 l88 -235 -230 -3 c-127 -1 -233 0 -235 2 -3 3 29 94 70 203 91 241 110
297 133 390 l18 73 34 -98 c18 -53 73 -203 122 -332z"/>
</g>
</svg>
